<mxfile host="app.diagrams.net" agent="Mozilla/5.0 (Windows NT 10.0; Win64; x64) AppleWebKit/537.36 (KHTML, like Gecko) Chrome/127.0.0.0 Safari/537.36 Edg/127.0.0.0" version="24.7.7">
  <diagram name="Page-1" id="c4acf3e9-155e-7222-9cf6-157b1a14988f">
    <mxGraphModel dx="1042" dy="567" grid="1" gridSize="10" guides="1" tooltips="1" connect="1" arrows="1" fold="1" page="1" pageScale="1" pageWidth="850" pageHeight="1100" background="none" math="0" shadow="0">
      <root>
        <mxCell id="0" />
        <mxCell id="1" parent="0" />
        <mxCell id="bnb_WfNLuofmRhA6DFg4-2" value="Office" style="swimlane;fontStyle=1;align=center;verticalAlign=top;childLayout=stackLayout;horizontal=1;startSize=26;horizontalStack=0;resizeParent=1;resizeParentMax=0;resizeLast=0;collapsible=1;marginBottom=0;whiteSpace=wrap;html=1;" parent="1" vertex="1">
          <mxGeometry x="80" y="81" width="190" height="120" as="geometry" />
        </mxCell>
        <mxCell id="bnb_WfNLuofmRhA6DFg4-3" value="&lt;b&gt;-name: string&lt;/b&gt;&lt;div&gt;&lt;b&gt;-address: string&amp;nbsp;&lt;/b&gt;&lt;/div&gt;&lt;div&gt;&lt;br&gt;&lt;/div&gt;" style="text;strokeColor=none;fillColor=none;align=left;verticalAlign=top;spacingLeft=4;spacingRight=4;overflow=hidden;rotatable=0;points=[[0,0.5],[1,0.5]];portConstraint=eastwest;whiteSpace=wrap;html=1;" parent="bnb_WfNLuofmRhA6DFg4-2" vertex="1">
          <mxGeometry y="26" width="190" height="44" as="geometry" />
        </mxCell>
        <mxCell id="bnb_WfNLuofmRhA6DFg4-4" value="" style="line;strokeWidth=1;fillColor=none;align=left;verticalAlign=middle;spacingTop=-1;spacingLeft=3;spacingRight=3;rotatable=0;labelPosition=right;points=[];portConstraint=eastwest;strokeColor=inherit;" parent="bnb_WfNLuofmRhA6DFg4-2" vertex="1">
          <mxGeometry y="70" width="190" height="8" as="geometry" />
        </mxCell>
        <mxCell id="bnb_WfNLuofmRhA6DFg4-5" value="+setOffice(name,address):void&lt;span style=&quot;background-color: initial;&quot;&gt;&amp;nbsp;&lt;/span&gt;&lt;div&gt;&lt;span style=&quot;background-color: initial;&quot;&gt;+displayOffice():void&amp;nbsp;&lt;/span&gt;&lt;/div&gt;" style="text;strokeColor=none;fillColor=none;align=left;verticalAlign=top;spacingLeft=4;spacingRight=4;overflow=hidden;rotatable=0;points=[[0,0.5],[1,0.5]];portConstraint=eastwest;whiteSpace=wrap;html=1;" parent="bnb_WfNLuofmRhA6DFg4-2" vertex="1">
          <mxGeometry y="78" width="190" height="42" as="geometry" />
        </mxCell>
        <mxCell id="kt82RPpuq3NCqTdv1-ed-2" value="Department" style="swimlane;fontStyle=1;align=center;verticalAlign=top;childLayout=stackLayout;horizontal=1;startSize=26;horizontalStack=0;resizeParent=1;resizeParentMax=0;resizeLast=0;collapsible=1;marginBottom=0;whiteSpace=wrap;html=1;" parent="1" vertex="1">
          <mxGeometry x="420" y="81" width="210" height="120" as="geometry" />
        </mxCell>
        <mxCell id="kt82RPpuq3NCqTdv1-ed-3" value="&lt;div&gt;&lt;b&gt;-deptid: int&lt;br&gt;&lt;/b&gt;&lt;/div&gt;&lt;b&gt;-name: string&lt;/b&gt;&lt;div&gt;&lt;br&gt;&lt;/div&gt;&lt;div&gt;&lt;br&gt;&lt;/div&gt;" style="text;strokeColor=none;fillColor=none;align=left;verticalAlign=top;spacingLeft=4;spacingRight=4;overflow=hidden;rotatable=0;points=[[0,0.5],[1,0.5]];portConstraint=eastwest;whiteSpace=wrap;html=1;" parent="kt82RPpuq3NCqTdv1-ed-2" vertex="1">
          <mxGeometry y="26" width="210" height="44" as="geometry" />
        </mxCell>
        <mxCell id="kt82RPpuq3NCqTdv1-ed-4" value="" style="line;strokeWidth=1;fillColor=none;align=left;verticalAlign=middle;spacingTop=-1;spacingLeft=3;spacingRight=3;rotatable=0;labelPosition=right;points=[];portConstraint=eastwest;strokeColor=inherit;" parent="kt82RPpuq3NCqTdv1-ed-2" vertex="1">
          <mxGeometry y="70" width="210" height="8" as="geometry" />
        </mxCell>
        <mxCell id="kt82RPpuq3NCqTdv1-ed-5" value="+setDepartment(deptid,name):void&lt;span style=&quot;background-color: initial;&quot;&gt;&amp;nbsp;&lt;/span&gt;&lt;div&gt;&lt;span style=&quot;background-color: initial;&quot;&gt;+displayDepartment():void&amp;nbsp;&lt;/span&gt;&lt;/div&gt;" style="text;strokeColor=none;fillColor=none;align=left;verticalAlign=top;spacingLeft=4;spacingRight=4;overflow=hidden;rotatable=0;points=[[0,0.5],[1,0.5]];portConstraint=eastwest;whiteSpace=wrap;html=1;" parent="kt82RPpuq3NCqTdv1-ed-2" vertex="1">
          <mxGeometry y="78" width="210" height="42" as="geometry" />
        </mxCell>
        <mxCell id="kt82RPpuq3NCqTdv1-ed-6" value="Web Development" style="swimlane;fontStyle=1;align=center;verticalAlign=top;childLayout=stackLayout;horizontal=1;startSize=26;horizontalStack=0;resizeParent=1;resizeParentMax=0;resizeLast=0;collapsible=1;marginBottom=0;whiteSpace=wrap;html=1;" parent="1" vertex="1">
          <mxGeometry x="400" y="291" width="140" height="110" as="geometry" />
        </mxCell>
        <mxCell id="kt82RPpuq3NCqTdv1-ed-7" value="&lt;div&gt;&lt;b&gt;-webType: string&lt;/b&gt;&lt;/div&gt;&lt;div&gt;&lt;br&gt;&lt;/div&gt;" style="text;strokeColor=none;fillColor=none;align=left;verticalAlign=top;spacingLeft=4;spacingRight=4;overflow=hidden;rotatable=0;points=[[0,0.5],[1,0.5]];portConstraint=eastwest;whiteSpace=wrap;html=1;" parent="kt82RPpuq3NCqTdv1-ed-6" vertex="1">
          <mxGeometry y="26" width="140" height="34" as="geometry" />
        </mxCell>
        <mxCell id="kt82RPpuq3NCqTdv1-ed-8" value="" style="line;strokeWidth=1;fillColor=none;align=left;verticalAlign=middle;spacingTop=-1;spacingLeft=3;spacingRight=3;rotatable=0;labelPosition=right;points=[];portConstraint=eastwest;strokeColor=inherit;" parent="kt82RPpuq3NCqTdv1-ed-6" vertex="1">
          <mxGeometry y="60" width="140" height="8" as="geometry" />
        </mxCell>
        <mxCell id="kt82RPpuq3NCqTdv1-ed-9" value="+setSite(webType):void&lt;span style=&quot;background-color: initial;&quot;&gt;&amp;nbsp;&lt;/span&gt;&lt;div&gt;&lt;span style=&quot;background-color: initial;&quot;&gt;+displayWeb():void&amp;nbsp;&lt;/span&gt;&lt;/div&gt;" style="text;strokeColor=none;fillColor=none;align=left;verticalAlign=top;spacingLeft=4;spacingRight=4;overflow=hidden;rotatable=0;points=[[0,0.5],[1,0.5]];portConstraint=eastwest;whiteSpace=wrap;html=1;" parent="kt82RPpuq3NCqTdv1-ed-6" vertex="1">
          <mxGeometry y="68" width="140" height="42" as="geometry" />
        </mxCell>
        <mxCell id="kt82RPpuq3NCqTdv1-ed-10" value="Mobile" style="swimlane;fontStyle=1;align=center;verticalAlign=top;childLayout=stackLayout;horizontal=1;startSize=26;horizontalStack=0;resizeParent=1;resizeParentMax=0;resizeLast=0;collapsible=1;marginBottom=0;whiteSpace=wrap;html=1;" parent="1" vertex="1">
          <mxGeometry x="560" y="291" width="140" height="110" as="geometry" />
        </mxCell>
        <mxCell id="kt82RPpuq3NCqTdv1-ed-11" value="&lt;div&gt;&lt;b&gt;-appType: string&lt;/b&gt;&lt;/div&gt;" style="text;strokeColor=none;fillColor=none;align=left;verticalAlign=top;spacingLeft=4;spacingRight=4;overflow=hidden;rotatable=0;points=[[0,0.5],[1,0.5]];portConstraint=eastwest;whiteSpace=wrap;html=1;" parent="kt82RPpuq3NCqTdv1-ed-10" vertex="1">
          <mxGeometry y="26" width="140" height="34" as="geometry" />
        </mxCell>
        <mxCell id="kt82RPpuq3NCqTdv1-ed-12" value="" style="line;strokeWidth=1;fillColor=none;align=left;verticalAlign=middle;spacingTop=-1;spacingLeft=3;spacingRight=3;rotatable=0;labelPosition=right;points=[];portConstraint=eastwest;strokeColor=inherit;" parent="kt82RPpuq3NCqTdv1-ed-10" vertex="1">
          <mxGeometry y="60" width="140" height="8" as="geometry" />
        </mxCell>
        <mxCell id="kt82RPpuq3NCqTdv1-ed-13" value="+setSite(appType): void&lt;div&gt;+displayApp(): void&lt;/div&gt;" style="text;strokeColor=none;fillColor=none;align=left;verticalAlign=top;spacingLeft=4;spacingRight=4;overflow=hidden;rotatable=0;points=[[0,0.5],[1,0.5]];portConstraint=eastwest;whiteSpace=wrap;html=1;" parent="kt82RPpuq3NCqTdv1-ed-10" vertex="1">
          <mxGeometry y="68" width="140" height="42" as="geometry" />
        </mxCell>
        <mxCell id="kt82RPpuq3NCqTdv1-ed-19" value="" style="verticalAlign=bottom;html=1;ellipse;fillColor=strokeColor;fontFamily=Helvetica;fontSize=11;fontColor=default;" parent="1" vertex="1">
          <mxGeometry x="526" y="224" width="4" height="4" as="geometry" />
        </mxCell>
        <mxCell id="kt82RPpuq3NCqTdv1-ed-20" value="" style="edgeStyle=elbowEdgeStyle;html=1;endSize=12;endArrow=block;endFill=0;elbow=horizontal;rounded=0;labelBackgroundColor=default;fontFamily=Helvetica;fontSize=11;fontColor=default;shape=connector;exitX=0.545;exitY=0.581;exitDx=0;exitDy=0;exitPerimeter=0;" parent="1" edge="1">
          <mxGeometry x="1" relative="1" as="geometry">
            <mxPoint x="528" y="201" as="targetPoint" />
            <mxPoint x="528.1800000000001" y="226.32399999999996" as="sourcePoint" />
          </mxGeometry>
        </mxCell>
        <mxCell id="kt82RPpuq3NCqTdv1-ed-21" value="" style="edgeStyle=elbowEdgeStyle;html=1;elbow=vertical;verticalAlign=bottom;endArrow=none;rounded=0;labelBackgroundColor=default;fontFamily=Helvetica;fontSize=11;fontColor=default;startSize=14;shape=connector;entryX=0.5;entryY=0;entryDx=0;entryDy=0;" parent="1" source="kt82RPpuq3NCqTdv1-ed-19" target="kt82RPpuq3NCqTdv1-ed-10" edge="1">
          <mxGeometry x="1" relative="1" as="geometry">
            <mxPoint x="590" y="250.99999999999997" as="targetPoint" />
            <Array as="points">
              <mxPoint x="560" y="226" />
            </Array>
          </mxGeometry>
        </mxCell>
        <mxCell id="kt82RPpuq3NCqTdv1-ed-22" value="" style="edgeStyle=elbowEdgeStyle;html=1;elbow=vertical;verticalAlign=bottom;endArrow=none;rounded=0;labelBackgroundColor=default;fontFamily=Helvetica;fontSize=11;fontColor=default;startSize=14;shape=connector;entryX=0.25;entryY=0;entryDx=0;entryDy=0;" parent="1" source="kt82RPpuq3NCqTdv1-ed-19" target="kt82RPpuq3NCqTdv1-ed-6" edge="1">
          <mxGeometry x="1" relative="1" as="geometry">
            <mxPoint x="450" y="250.99999999999997" as="targetPoint" />
            <Array as="points">
              <mxPoint x="480" y="226" />
            </Array>
          </mxGeometry>
        </mxCell>
        <mxCell id="kt82RPpuq3NCqTdv1-ed-23" style="edgeStyle=orthogonalEdgeStyle;rounded=0;orthogonalLoop=1;jettySize=auto;html=1;exitX=1;exitY=0.5;exitDx=0;exitDy=0;entryX=0;entryY=0.5;entryDx=0;entryDy=0;endArrow=none;endFill=0;" parent="1" source="bnb_WfNLuofmRhA6DFg4-3" target="kt82RPpuq3NCqTdv1-ed-3" edge="1">
          <mxGeometry relative="1" as="geometry" />
        </mxCell>
        <mxCell id="kt82RPpuq3NCqTdv1-ed-24" value="Employee" style="swimlane;fontStyle=1;align=center;verticalAlign=top;childLayout=stackLayout;horizontal=1;startSize=26;horizontalStack=0;resizeParent=1;resizeParentMax=0;resizeLast=0;collapsible=1;marginBottom=0;whiteSpace=wrap;html=1;" parent="1" vertex="1">
          <mxGeometry x="80" y="281" width="140" height="150" as="geometry" />
        </mxCell>
        <mxCell id="kt82RPpuq3NCqTdv1-ed-25" value="&lt;div&gt;&lt;b&gt;-eid: int&lt;/b&gt;&lt;/div&gt;&lt;div&gt;&lt;b&gt;-name: string&lt;/b&gt;&lt;/div&gt;&lt;div&gt;&lt;b&gt;-spec: string&lt;/b&gt;&lt;/div&gt;&lt;div&gt;&lt;br&gt;&lt;/div&gt;" style="text;strokeColor=none;fillColor=none;align=left;verticalAlign=top;spacingLeft=4;spacingRight=4;overflow=hidden;rotatable=0;points=[[0,0.5],[1,0.5]];portConstraint=eastwest;whiteSpace=wrap;html=1;" parent="kt82RPpuq3NCqTdv1-ed-24" vertex="1">
          <mxGeometry y="26" width="140" height="54" as="geometry" />
        </mxCell>
        <mxCell id="kt82RPpuq3NCqTdv1-ed-26" value="" style="line;strokeWidth=1;fillColor=none;align=left;verticalAlign=middle;spacingTop=-1;spacingLeft=3;spacingRight=3;rotatable=0;labelPosition=right;points=[];portConstraint=eastwest;strokeColor=inherit;" parent="kt82RPpuq3NCqTdv1-ed-24" vertex="1">
          <mxGeometry y="80" width="140" height="8" as="geometry" />
        </mxCell>
        <mxCell id="kt82RPpuq3NCqTdv1-ed-27" value="+setEmp(eid,name,spec): void&lt;div&gt;+displayEmp():void&lt;/div&gt;" style="text;strokeColor=none;fillColor=none;align=left;verticalAlign=top;spacingLeft=4;spacingRight=4;overflow=hidden;rotatable=0;points=[[0,0.5],[1,0.5]];portConstraint=eastwest;whiteSpace=wrap;html=1;" parent="kt82RPpuq3NCqTdv1-ed-24" vertex="1">
          <mxGeometry y="88" width="140" height="62" as="geometry" />
        </mxCell>
        <mxCell id="kt82RPpuq3NCqTdv1-ed-28" style="edgeStyle=orthogonalEdgeStyle;rounded=0;orthogonalLoop=1;jettySize=auto;html=1;exitX=1;exitY=0.5;exitDx=0;exitDy=0;entryX=0;entryY=0.5;entryDx=0;entryDy=0;endArrow=none;endFill=0;" parent="1" source="kt82RPpuq3NCqTdv1-ed-25" target="kt82RPpuq3NCqTdv1-ed-5" edge="1">
          <mxGeometry relative="1" as="geometry" />
        </mxCell>
        <mxCell id="kt82RPpuq3NCqTdv1-ed-29" value="&lt;b&gt;&lt;font style=&quot;font-size: 18px;&quot;&gt;1..*&lt;/font&gt;&lt;/b&gt;" style="text;html=1;align=center;verticalAlign=middle;whiteSpace=wrap;rounded=0;" parent="1" vertex="1">
          <mxGeometry x="373" y="97" width="60" height="30" as="geometry" />
        </mxCell>
        <mxCell id="kt82RPpuq3NCqTdv1-ed-30" value="&lt;span style=&quot;font-size: 18px;&quot;&gt;&lt;b&gt;1&lt;/b&gt;&lt;/span&gt;" style="text;html=1;align=center;verticalAlign=middle;whiteSpace=wrap;rounded=0;" parent="1" vertex="1">
          <mxGeometry x="264" y="96" width="60" height="30" as="geometry" />
        </mxCell>
        <mxCell id="kt82RPpuq3NCqTdv1-ed-31" value="&lt;b&gt;&lt;font style=&quot;font-size: 18px;&quot;&gt;5...8&lt;/font&gt;&lt;/b&gt;" style="text;html=1;align=center;verticalAlign=middle;whiteSpace=wrap;rounded=0;" parent="1" vertex="1">
          <mxGeometry x="220" y="300" width="60" height="30" as="geometry" />
        </mxCell>
        <mxCell id="kt82RPpuq3NCqTdv1-ed-33" value="&lt;span style=&quot;font-size: 18px;&quot;&gt;&lt;b&gt;1&lt;/b&gt;&lt;/span&gt;" style="text;html=1;align=center;verticalAlign=middle;whiteSpace=wrap;rounded=0;" parent="1" vertex="1">
          <mxGeometry x="365" y="150" width="60" height="30" as="geometry" />
        </mxCell>
        <mxCell id="kt82RPpuq3NCqTdv1-ed-34" value="Manager" style="swimlane;fontStyle=1;align=center;verticalAlign=top;childLayout=stackLayout;horizontal=1;startSize=26;horizontalStack=0;resizeParent=1;resizeParentMax=0;resizeLast=0;collapsible=1;marginBottom=0;whiteSpace=wrap;html=1;" parent="1" vertex="1">
          <mxGeometry x="80" y="540" width="140" height="100" as="geometry" />
        </mxCell>
        <mxCell id="kt82RPpuq3NCqTdv1-ed-35" value="&lt;b&gt;-mid:int&lt;/b&gt;&lt;div&gt;&lt;b&gt;&lt;br&gt;&lt;/b&gt;&lt;/div&gt;" style="text;strokeColor=none;fillColor=none;align=left;verticalAlign=top;spacingLeft=4;spacingRight=4;overflow=hidden;rotatable=0;points=[[0,0.5],[1,0.5]];portConstraint=eastwest;whiteSpace=wrap;html=1;" parent="kt82RPpuq3NCqTdv1-ed-34" vertex="1">
          <mxGeometry y="26" width="140" height="24" as="geometry" />
        </mxCell>
        <mxCell id="kt82RPpuq3NCqTdv1-ed-36" value="" style="line;strokeWidth=1;fillColor=none;align=left;verticalAlign=middle;spacingTop=-1;spacingLeft=3;spacingRight=3;rotatable=0;labelPosition=right;points=[];portConstraint=eastwest;strokeColor=inherit;" parent="kt82RPpuq3NCqTdv1-ed-34" vertex="1">
          <mxGeometry y="50" width="140" height="8" as="geometry" />
        </mxCell>
        <mxCell id="kt82RPpuq3NCqTdv1-ed-37" value="+setManager(mid): void&lt;div&gt;+displayManager():void&lt;/div&gt;" style="text;strokeColor=none;fillColor=none;align=left;verticalAlign=top;spacingLeft=4;spacingRight=4;overflow=hidden;rotatable=0;points=[[0,0.5],[1,0.5]];portConstraint=eastwest;whiteSpace=wrap;html=1;" parent="kt82RPpuq3NCqTdv1-ed-34" vertex="1">
          <mxGeometry y="58" width="140" height="42" as="geometry" />
        </mxCell>
        <mxCell id="kt82RPpuq3NCqTdv1-ed-38" style="edgeStyle=orthogonalEdgeStyle;rounded=0;orthogonalLoop=1;jettySize=auto;html=1;entryX=0.499;entryY=0.995;entryDx=0;entryDy=0;entryPerimeter=0;endArrow=block;endFill=0;" parent="1" source="kt82RPpuq3NCqTdv1-ed-34" target="kt82RPpuq3NCqTdv1-ed-27" edge="1">
          <mxGeometry relative="1" as="geometry" />
        </mxCell>
        <mxCell id="kt82RPpuq3NCqTdv1-ed-42" style="edgeStyle=orthogonalEdgeStyle;rounded=0;orthogonalLoop=1;jettySize=auto;html=1;entryX=0.599;entryY=1.014;entryDx=0;entryDy=0;entryPerimeter=0;endArrow=none;endFill=0;" parent="1" source="kt82RPpuq3NCqTdv1-ed-37" target="kt82RPpuq3NCqTdv1-ed-13" edge="1">
          <mxGeometry relative="1" as="geometry" />
        </mxCell>
        <mxCell id="RL5NGNpfTyLfdpSj4ush-3" style="edgeStyle=orthogonalEdgeStyle;rounded=0;orthogonalLoop=1;jettySize=auto;html=1;endArrow=none;endFill=0;exitX=0.997;exitY=0.233;exitDx=0;exitDy=0;exitPerimeter=0;entryX=0.286;entryY=0.976;entryDx=0;entryDy=0;entryPerimeter=0;" edge="1" parent="1" source="kt82RPpuq3NCqTdv1-ed-35" target="kt82RPpuq3NCqTdv1-ed-9">
          <mxGeometry relative="1" as="geometry">
            <mxPoint x="250" y="573.6" as="sourcePoint" />
            <mxPoint x="440" y="405" as="targetPoint" />
            <Array as="points">
              <mxPoint x="440" y="572" />
            </Array>
          </mxGeometry>
        </mxCell>
      </root>
    </mxGraphModel>
  </diagram>
</mxfile>
